<svg xmlns="http://www.w3.org/2000/svg" xmlns:xlink="http://www.w3.org/1999/xlink" aria-hidden="true" role="img" class="iconify iconify--logos" width="31.88" height="32" preserveAspectRatio="xMidYMid meet" viewBox="0 0 256 257"><defs><linearGradient id="IconifyId1813088fe1fbc01fb466" x1="-.828%" x2="57.636%" y1="7.652%" y2="78.411%"><stop offset="0%" stop-color="#FF00B4"/><stop offset="100%" stop-color="#B1B4FF"/></linearGradient></defs><path fill="url(#IconifyId1813088fe1fbc01fb466)" d="M255.153 37.938L134.897 252.976c-2.483 4.44-8.862 4.466-11.382.048L.875 37.958c-2.746-4.814 1.371-10.646 6.827-10.67h24.211L128.906 218.126l96.954-190.835h27.144c5.468 0 9.542 5.817 6.923 10.023Z"/><path fill="#FD005B" d="M185.432.063L96.44 17.501a6.7 6.7 0 0 0-5.749 7.823c.806 4.974 4.897 8.299 9.277 8.299h.36a6.7 6.7 0 0 0 6.514-5.467l10.875-59.627 84.605 10.947a6.7 6.7 0 0 0 5.517-12.615Z"/></svg>